Coordinates
version=1
nRows=34
nColumns=38
inDegrees=no

Units are S.I. units (second, meters, Newtons, ...)
If the header above contains a line with 'inDegrees', this indicates whether rotational values are in degrees (yes) or radians (no).

endheader
time	pelvis_tilt	pelvis_list	pelvis_rotation	pelvis_tx	pelvis_ty	pelvis_tz	hip_flexion_r	hip_adduction_r	hip_rotation_r	knee_angle_r	ankle_angle_r	subtalar_angle_r	mtp_angle_r	hip_flexion_l	hip_adduction_l	hip_rotation_l	knee_angle_l	ankle_angle_l	subtalar_angle_l	mtp_angle_l	lumbar_extension	lumbar_bending	lumbar_rotation	arm_flex_r	arm_add_r	arm_rot_r	elbow_flex_r	pro_sup_r	wrist_flex_r	wrist_dev_r	arm_flex_l	arm_add_l	arm_rot_l	elbow_flex_l	pro_sup_l	wrist_flex_l	wrist_dev_l
2.84	3.00552	1.35123	-1.10185	0.684021	-0.109291	0.934693	0.0942927	-0.0441923	-0.451081	0.422113	0.0493492	0	0	-0.523599	-0.267635	-0.217934	0.296698	-0.00779318	0	0	-0.737212	0.210912	-0.0894878	0.550375	-0.925174	0.966181	1.60945	0.774628	0	0	0.381192	-0.630104	0.558863	1.66906	1.04821	0	0
2.85	3.11062	1.40015	-1.2335	0.687387	-0.105073	0.928117	0.180191	-0.0961949	-0.409744	0.515122	0.0849793	0	0	-0.488114	-0.220582	-0.203371	0.301402	-0.00323538	0	0	-0.701346	0.165073	-0.0904448	0.523583	-0.928742	0.950167	1.63261	0.782896	0	0	0.357077	-0.637607	0.54481	1.686	1.05586	0	0
2.86	3.09386	1.40057	-1.2193	0.688845	-0.100235	0.927426	0.19301	-0.0946398	-0.399312	0.545477	0.0921452	0	0	-0.485385	-0.22617	-0.202162	0.312156	-0.0105071	0	0	-0.705764	0.16878	-0.0849025	0.497583	-0.932138	0.932508	1.65593	0.783064	0	0	0.33209	-0.642413	0.528068	1.70269	1.05605	0	0
2.87	3.06286	1.40002	-1.1909	0.690337	-0.0951757	0.927055	0.199811	-0.0878506	-0.39048	0.564501	0.0970982	0	0	-0.481519	-0.234687	-0.201879	0.325294	-0.0192878	0	0	-0.71057	0.174614	-0.078078	0.466885	-0.933402	0.907183	1.67714	0.800321	0	0	0.305854	-0.6458	0.509879	1.71674	1.07156	0	0
2.88	3.02526	1.39949	-1.15588	0.691996	-0.0897398	0.926791	0.199819	-0.0775753	-0.386168	0.569972	0.10137	0	0	-0.475719	-0.245066	-0.202025	0.341327	-0.0299714	0	0	-0.714605	0.180737	-0.0713423	0.430983	-0.931221	0.874015	1.69492	0.841349	0	0	0.278343	-0.649178	0.491195	1.72877	1.10345	0	0
2.89	2.9282	1.336	-1.03252	0.691482	-0.082602	0.933048	0.105619	-0.014205	-0.428179	0.504858	0.0790156	0	0	-0.523599	-0.311647	-0.209828	0.346737	-0.0514806	0	0	-0.769166	0.236858	-0.0601949	0.396355	-0.927506	0.842255	1.71114	0.872428	0	0	0.250543	-0.653241	0.473135	1.74077	1.12287	0	0
2.9	2.96359	1.40251	-1.10011	0.696127	-0.0782966	0.926492	0.189731	-0.0577325	-0.390807	0.5567	0.11027	0	0	-0.454889	-0.263266	-0.200734	0.381055	-0.0609953	0	0	-0.71823	0.186893	-0.0627615	0.358713	-0.915443	0.810201	1.71894	0.897371	0	0	0.220782	-0.658035	0.454393	1.74883	1.13578	0	0
2.91	3.04086	1.33034	-1.14727	0.692901	-0.0719132	0.936992	0.0644961	-0.0327064	-0.445204	0.488801	0.0916156	0	0	-0.523599	-0.288717	-0.176865	0.36629	-0.113424	0	0	-0.795334	0.222374	-0.0721993	0.332023	-0.908695	0.784723	1.72982	0.92153	0	0	0.197369	-0.659742	0.437074	1.75562	1.14873	0	0
2.92	3.12568	1.39314	-1.26677	0.697932	-0.0674146	0.931227	0.144745	-0.0775857	-0.407192	0.537409	0.122891	0	0	-0.461949	-0.237315	-0.172679	0.400974	-0.130197	0	0	-0.746067	0.169081	-0.0745882	0.302364	-0.893577	0.763045	1.73325	0.934786	0	0	0.170667	-0.664068	0.420446	1.7599	1.15622	0	0
2.93	2.91493	1.41653	-1.06332	0.703282	-0.0613986	0.927582	0.174377	-0.0383287	-0.398841	0.526142	0.124497	0	0	-0.405109	-0.276478	-0.198021	0.452437	-0.132593	0	0	-0.714251	0.181365	-0.0577165	0.271518	-0.875326	0.743497	1.73384	0.938109	0	0	0.143403	-0.669196	0.406027	1.76387	1.15865	0	0
2.94	2.89407	1.41971	-1.0472	0.705788	-0.0559546	0.928647	0.166593	-0.0296809	-0.399262	0.511247	0.124932	0	0	-0.387886	-0.280845	-0.196347	0.477756	-0.162039	0	0	-0.713355	0.179305	-0.0539112	0.244765	-0.859475	0.720611	1.7333	0.986831	0	0	0.122635	-0.671144	0.393191	1.76477	1.18851	0	0
2.95	3.09873	1.40265	-1.25416	0.705754	-0.0495279	0.933709	0.123985	-0.0528548	-0.393627	0.507112	0.134384	0	0	-0.41702	-0.24878	-0.176614	0.473063	-0.211992	0	0	-0.741211	0.159391	-0.0668929	0.228498	-0.848145	0.715939	1.73368	0.97247	0	0	0.103024	-0.674625	0.384182	1.76577	1.1799	0	0
2.96	3.06067	1.40507	-1.22803	0.708224	-0.0454638	0.935772	0.11406	-0.0411669	-0.399424	0.481237	0.124557	0	0	-0.399092	-0.251256	-0.178861	0.50036	-0.242567	0	0	-0.743585	0.158218	-0.0561224	0.217717	-0.8385	0.709539	1.73117	0.985682	0	0	0.086903	-0.674175	0.374122	1.7634	1.19094	0	0
2.97	2.96623	1.34489	-1.11479	0.7087	-0.0383288	0.943686	0.0157914	0.0221596	-0.423992	0.40243	0.0904603	0	0	-0.444735	-0.306295	-0.186251	0.510333	-0.278807	0	0	-0.794653	0.201877	-0.0434993	0.199883	-0.826139	0.698284	1.72696	1.00702	0	0	0.07127	-0.67679	0.368274	1.76176	1.20601	0	0
2.98	3.02584	1.40711	-1.21207	0.713332	-0.0348292	0.939056	0.0933486	-0.0211934	-0.386471	0.447798	0.118219	0	0	-0.370362	-0.254282	-0.183903	0.553718	-0.296332	0	0	-0.743335	0.14977	-0.039209	0.176498	-0.810778	0.677904	1.71725	1.06201	0	0	0.0604083	-0.67674	0.366854	1.75314	1.22989	0	0
2.99	2.79818	1.42446	-0.988023	0.717828	-0.0304359	0.93634	0.117376	0.0165085	-0.379626	0.432009	0.112549	0	0	-0.307134	-0.292993	-0.197012	0.617074	-0.295043	0	0	-0.712743	0.164818	-0.0236159	0.158983	-0.795524	0.669917	1.70841	1.07394	0	0	0.0469325	-0.68234	0.365113	1.74765	1.23283	0	0
3	3.00404	1.40919	-1.21362	0.718562	-0.0243636	0.942101	0.0722395	-0.00509304	-0.372698	0.415998	0.113497	0	0	-0.342073	-0.252232	-0.200654	0.608713	-0.331705	0	0	-0.740441	0.136854	-0.0221269	0.149348	-0.788818	0.669371	1.70261	1.06655	0	0	0.0364276	-0.680351	0.364387	1.73688	1.23288	0	0
3.01	2.77187	1.42544	-0.987007	0.723229	-0.0198714	0.939284	0.0936906	0.0345916	-0.362025	0.39633	0.105993	0	0	-0.283812	-0.29147	-0.214018	0.665836	-0.31336	0	0	-0.709013	0.150924	-0.00348978	0.128943	-0.772518	0.655694	1.69288	1.09973	0	0	0.0271897	-0.686077	0.368013	1.72882	1.22822	0	0
3.02	2.77205	1.4248	-0.997525	0.725586	-0.0147955	0.940934	0.0780743	0.0425379	-0.35423	0.375125	0.100708	0	0	-0.275036	-0.288899	-0.217718	0.686157	-0.305545	0	0	-0.708226	0.144322	0.0047044	0.113408	-0.759955	0.645441	1.68334	1.13335	0	0	0.0197838	-0.687782	0.370334	1.71872	1.24069	0	0
3.03	2.78722	1.4243	-1.02166	0.72772	-0.00997162	0.942696	0.0620161	0.0475157	-0.348288	0.355394	0.0960044	0	0	-0.267173	-0.283882	-0.218686	0.702816	-0.292981	0	0	-0.70781	0.136886	0.00961479	0.103704	-0.748253	0.643884	1.67208	1.14295	0	0	0.0114597	-0.689903	0.371507	1.71	1.24282	0	0
3.04	2.80752	1.42363	-1.05197	0.729969	-0.00514842	0.944477	0.0460278	0.0516584	-0.340588	0.336909	0.0919211	0	0	-0.260984	-0.277875	-0.220798	0.716077	-0.275986	0	0	-0.707326	0.128095	0.0145382	0.0953796	-0.735927	0.64363	1.65929	1.15241	0	0	0.00258885	-0.692139	0.37209	1.70174	1.24463	0	0
3.05	2.87093	1.42031	-1.11791	0.731866	0.000508489	0.946056	0.0265986	0.0515234	-0.323777	0.327728	0.0954839	0	0	-0.259628	-0.269174	-0.215603	0.726775	-0.253752	0	0	-0.708054	0.118044	0.0108545	0.084507	-0.720301	0.642766	1.64526	1.16185	0	0	-0.00800038	-0.698239	0.372789	1.6959	1.24545	0	0
3.06	2.89875	1.41953	-1.15316	0.733852	0.00493953	0.94781	0.0102012	0.0537201	-0.316804	0.308933	0.0907932	0	0	-0.251953	-0.261261	-0.211488	0.739553	-0.228642	0	0	-0.706964	0.109307	0.0127526	0.0784749	-0.707643	0.643485	1.6316	1.16981	0	0	-0.0155354	-0.700229	0.373175	1.68729	1.24616	0	0
3.07	2.92566	1.41932	-1.18784	0.735805	0.00937939	0.949426	-0.00503278	0.0552488	-0.309389	0.291085	0.0865611	0	0	-0.244045	-0.253287	-0.209493	0.750195	-0.204558	0	0	-0.704505	0.100176	0.014752	0.0731959	-0.695056	0.645154	1.61698	1.17643	0	0	-0.0229357	-0.701405	0.373719	1.67773	1.24763	0	0
3.08	2.95169	1.41835	-1.2204	0.737549	0.013693	0.950994	-0.0208392	0.0566717	-0.30285	0.273218	0.0817529	0	0	-0.236642	-0.245718	-0.207662	0.75797	-0.186004	0	0	-0.702236	0.0921623	0.0160629	0.0687404	-0.683207	0.647578	1.60259	1.1819	0	0	-0.0301354	-0.702246	0.374572	1.66792	1.24954	0	0
3.09	2.9745	1.4135	-1.24809	0.739142	0.0179795	0.952764	-0.0423857	0.0605165	-0.295807	0.250999	0.0739739	0	0	-0.233794	-0.240369	-0.206266	0.761216	-0.174225	0	0	-0.70312	0.0864708	0.0172997	0.0642067	-0.672451	0.649748	1.59001	1.18681	0	0	-0.0368329	-0.703267	0.375744	1.65818	1.2503	0	0
3.1	2.93285	1.37012	-1.19497	0.740422	0.0243528	0.958413	-0.117655	0.0984078	-0.303007	0.195146	0.0439944	0	0	-0.271368	-0.270145	-0.209364	0.750587	-0.168159	0	0	-0.734537	0.108062	0.0210464	0.057359	-0.659524	0.651955	1.57632	1.18454	0	0	-0.0446288	-0.706575	0.377213	1.64924	1.24958	0	0
3.11	3.01778	1.41597	-1.30306	0.742178	0.0259028	0.954938	-0.0630846	0.0595853	-0.285187	0.2262	0.0692457	0	0	-0.213784	-0.225875	-0.208606	0.765814	-0.151681	0	0	-0.69209	0.0712043	0.0198713	0.0534498	-0.651303	0.651201	1.56224	1.20265	0	0	-0.0476187	-0.701908	0.379554	1.63466	1.25201	0	0
3.12	3.03838	1.41475	-1.32792	0.743443	0.0298636	0.95607	-0.0774913	0.060298	-0.280448	0.210306	0.0654559	0	0	-0.206956	-0.220454	-0.211297	0.765806	-0.138372	0	0	-0.688248	0.0653552	0.0206003	0.0485571	-0.642392	0.653569	1.54887	1.20719	0	0	-0.0539229	-0.701174	0.380808	1.62464	1.25266	0	0
3.13	3.05706	1.41277	-1.34992	0.744632	0.0338682	0.957134	-0.0930102	0.0614891	-0.276591	0.193723	0.0620364	0	0	-0.201234	-0.216107	-0.214411	0.764647	-0.125923	0	0	-0.68452	0.0603016	0.0210054	0.0437508	-0.633955	0.656716	1.53525	1.21138	0	0	-0.060619	-0.70023	0.381045	1.61601	1.25386	0	0
3.14	3.07494	1.41019	-1.37118	0.745841	0.037762	0.958152	-0.108794	0.0627799	-0.27166	0.177647	0.0580824	0	0	-0.196771	-0.211684	-0.218148	0.760867	-0.112721	0	0	-0.681211	0.0551799	0.0217796	0.0392343	-0.625959	0.660041	1.52201	1.21534	0	0	-0.0661903	-0.698666	0.381255	1.60885	1.2557	0	0
3.15	3.09112	1.40728	-1.39085	0.747033	0.0415858	0.959116	-0.124457	0.0639859	-0.266445	0.162349	0.0538481	0	0	-0.19325	-0.207194	-0.222938	0.754523	-0.0985282	0	0	-0.677941	0.0502337	0.0230057	0.0345798	-0.618512	0.662786	1.51008	1.21886	0	0	-0.072025	-0.696701	0.380422	1.60046	1.25751	0	0
3.16	3.10944	1.4042	-1.41243	0.748145	0.0453162	0.960004	-0.140091	0.0644273	-0.260772	0.147552	0.0501007	0	0	-0.19013	-0.202834	-0.228954	0.747121	-0.0840762	0	0	-0.674787	0.0451052	0.0240613	0.0294755	-0.611606	0.664795	1.4998	1.2223	0	0	-0.0784115	-0.694871	0.378576	1.59177	1.25904	0	0
3.17	3.12886	1.40095	-1.43476	0.749192	0.0489354	0.960841	-0.15565	0.0644295	-0.255164	0.133013	0.046735	0	0	-0.187102	-0.199048	-0.235836	0.739366	-0.0695001	0	0	-0.671783	0.0398772	0.0249442	0.0239304	-0.604592	0.665485	1.49011	1.22603	0	0	-0.0849087	-0.693485	0.376629	1.58338	1.25991	0	0
